<svg xmlns="http://www.w3.org/2000/svg" viewBox="0 0 3508.85 3396.38"><defs><style>.cls-1{fill:#fb724c;}.cls-2{fill:#fff;}.cls-3{fill:#562e60;}.cls-4{fill:#ff8f83;}.cls-5{fill:#88d875;}.cls-6{fill:#ffd45a;}</style></defs><g id="Calque_2" data-name="Calque 2"><g id="Calque_1-2" data-name="Calque 1"><circle class="cls-1" cx="1754.47" cy="1802.47" r="1276.16" transform="translate(-760.67 1768.53) rotate(-45)"/><path class="cls-2" d="M2561.48,1443.17V1500a45.3,45.3,0,0,1-45.3,45.3H1653.63a45.31,45.31,0,0,1-45.31-45.3V63.44a45.32,45.32,0,0,1,45.31-45.31h862.55a45.31,45.31,0,0,1,45.3,45.31V1443.17Z"/><path class="cls-3" d="M2516.18,1563.48H1653.62a63.51,63.51,0,0,1-63.43-63.44V63.44A63.51,63.51,0,0,1,1653.62,0h862.56a63.5,63.5,0,0,1,63.43,63.44V1500A63.5,63.5,0,0,1,2516.18,1563.48ZM1653.62,36.26a27.21,27.21,0,0,0-27.17,27.18V1500a27.2,27.2,0,0,0,27.17,27.18h862.56a27.21,27.21,0,0,0,27.18-27.18V63.44a27.21,27.21,0,0,0-27.18-27.18Z"/><path class="cls-4" d="M2561.48,1500V1389.68c-146.08,1.55-325.82,8.65-325.82,8.65H1608.32V1500a45.3,45.3,0,0,0,45.3,45.3h862.56A45.3,45.3,0,0,0,2561.48,1500Z"/><path class="cls-3" d="M2516.18,1563.48H1653.62a63.51,63.51,0,0,1-63.43-63.44V1398.33a18.13,18.13,0,0,1,18.13-18.13h627c9.14-.35,184.42-7.14,326-8.65a17.42,17.42,0,0,1,12.95,5.24,18.15,18.15,0,0,1,5.37,12.89V1500A63.5,63.5,0,0,1,2516.18,1563.48Zm-889.73-147V1500a27.2,27.2,0,0,0,27.17,27.18h862.56a27.21,27.21,0,0,0,27.18-27.18v-92c-140.58,1.89-305.27,8.35-307,8.42H1626.45Z"/><path class="cls-3" d="M2329.73,294.78H2016.59a18.13,18.13,0,1,1,0-36.26h313.14a18.13,18.13,0,1,1,0,36.26Z"/><path class="cls-3" d="M2295.15,400.82H2016.59a18.13,18.13,0,1,1,0-36.26h278.56a18.13,18.13,0,1,1,0,36.26Z"/><path class="cls-3" d="M2188.67,618.19H2016.59a18.13,18.13,0,1,1,0-36.25h172.08a18.13,18.13,0,1,1,0,36.25Z"/><path class="cls-3" d="M2188.67,724.23H2016.59a18.13,18.13,0,1,1,0-36.26h172.08a18.13,18.13,0,1,1,0,36.26Z"/><path class="cls-3" d="M2314.7,945.18H2016.59a18.13,18.13,0,1,1,0-36.26H2314.7a18.13,18.13,0,1,1,0,36.26Z"/><path class="cls-3" d="M2314.7,1051.22H2016.59a18.13,18.13,0,1,1,0-36.26H2314.7a18.13,18.13,0,1,1,0,36.26Z"/><path class="cls-2" d="M2617.71,1288H2372.26c-34.28,0-62.09-25.75-62.09-59.71s27.81-59.7,62.09-59.7h92.35c48-47.76,111.93-83.58,188.92-83.58,88.83,0,179.11,40.64,226.87,107.46v250.75H2319.2c-25.33,0-47.75-9.39-65.66-27.12l-174.72-173a75.17,75.17,0,0,1,0-107,76.86,76.86,0,0,1,108.13,0l144.19,139.78Z"/><path class="cls-3" d="M2880.4,1461.3H2319.2c-29.91,0-57-11.19-78.42-32.37l-174.72-173a93.3,93.3,0,0,1,0-132.73,95,95,0,0,1,133.69,0l93.58,90.73c6.73-36.6,39-63.55,78.93-63.55h85c57.34-54.72,125.06-83.59,196.29-83.59,96.83,0,191.67,45.16,241.62,115.05a18.12,18.12,0,0,1,3.38,10.54v250.75A18.13,18.13,0,0,1,2880.4,1461.3ZM2132.88,1132a58.07,58.07,0,0,0-41.27,16.94,57.05,57.05,0,0,0,0,81.24l174.72,173c14.67,14.52,32.47,21.88,52.91,21.88h543.07V1198.38c-44.21-58.05-125.41-95.29-208.74-95.29-80.48,0-140.21,42.59-176.14,78.31a18.1,18.1,0,0,1-12.78,5.27h-92.35c-24.65,0-44,18.26-44,41.57s19.31,41.59,44,41.59h245.45a18.13,18.13,0,1,1,0,36.25H2372.26a82.51,82.51,0,0,1-43.83-12.28,18.06,18.06,0,0,1-9.91-4.91l-144.18-139.78A58.24,58.24,0,0,0,2132.88,1132Z"/><path class="cls-2" d="M2926.32,1503.45h39.31V1098.07h-39.31A45.91,45.91,0,0,0,2880.4,1144v313.56A45.91,45.91,0,0,0,2926.32,1503.45Z"/><path class="cls-3" d="M2965.63,1521.58h-39.31a64.12,64.12,0,0,1-64.05-64V1144a64.12,64.12,0,0,1,64.05-64h39.31a18.13,18.13,0,0,1,18.13,18.13v405.38A18.13,18.13,0,0,1,2965.63,1521.58Zm-39.31-405.38a27.81,27.81,0,0,0-27.79,27.78v313.56a27.82,27.82,0,0,0,27.79,27.79h21.18V1116.2Z"/><path class="cls-5" d="M3130.79,1056.66H3004.27a38.64,38.64,0,0,0-38.64,38.64v410.93a38.63,38.63,0,0,0,38.64,38.63h126.52Z"/><path class="cls-3" d="M3130.79,1563H3004.27a56.83,56.83,0,0,1-56.77-56.76V1095.3a56.84,56.84,0,0,1,56.77-56.77h126.52a18.13,18.13,0,1,1,0,36.26H3004.27a20.53,20.53,0,0,0-20.51,20.51v410.93a20.53,20.53,0,0,0,20.51,20.5h126.52a18.13,18.13,0,1,1,0,36.26Z"/><path class="cls-6" d="M2933.16,643.23c0,205.58-166.66,372.24-372.25,372.24s-372.24-166.66-372.24-372.24S2355.33,271,2560.91,271,2933.16,437.64,2933.16,643.23Z"/><path class="cls-3" d="M2560.91,1033.6c-215.25,0-390.37-175.12-390.37-390.37s175.12-390.38,390.37-390.38S2951.29,428,2951.29,643.23,2776.16,1033.6,2560.91,1033.6Zm0-744.49c-195.25,0-354.11,158.85-354.11,354.12s158.86,354.11,354.11,354.11S2915,838.49,2915,643.23,2756.17,289.11,2560.91,289.11Z"/><path class="cls-2" d="M2668.55,544.23,2776,559.61c29.7,4.25,41.63,40.69,20.2,61.68l-77.58,76a36.21,36.21,0,0,0-10.34,32.07l18.59,107c5.14,29.56-25.84,52.16-52.42,38.27l-96.21-50.3a36.2,36.2,0,0,0-33.68.07l-96,50.73c-26.53,14-57.61-8.45-52.6-38l18.12-107a36.23,36.23,0,0,0-10.48-32l-77.91-75.61c-21.53-20.89-9.76-57.39,19.91-61.77l107.41-15.85a36.16,36.16,0,0,0,27.2-19.85l47.84-97.48c13.22-26.92,51.57-27,64.9-.13l48.27,97.25A36.15,36.15,0,0,0,2668.55,544.23Z"/><path class="cls-3" d="M2431.62,897.41a54.41,54.41,0,0,1-53.5-63.43l18.12-107.05a18.1,18.1,0,0,0-5.23-16l-77.91-75.6A54.32,54.32,0,0,1,2343,542.62l107.41-15.84a18.07,18.07,0,0,0,13.58-9.91l47.83-97.47A54,54,0,0,1,2560.47,389h.11a54,54,0,0,1,48.65,30.19l48.27,97.24a18,18,0,0,0,13.6,9.84h0l107.47,15.37a54.31,54.31,0,0,1,30.31,92.58l-77.57,76a18.06,18.06,0,0,0-5.16,16l18.58,106.95a54.31,54.31,0,0,1-78.67,57.44l-96.22-50.31a18.14,18.14,0,0,0-16.83,0l-96,50.73A54.43,54.43,0,0,1,2431.62,897.41Zm129-472.14h0a17.7,17.7,0,0,0-16.17,10.1l-47.84,97.47a54.32,54.32,0,0,1-40.83,29.81l-107.41,15.84a18.06,18.06,0,0,0-9.94,30.83l77.92,75.6A54.37,54.37,0,0,1,2432,733l-18.12,107a18.06,18.06,0,0,0,26.25,19l96-50.73a54.37,54.37,0,0,1,50.55-.11l96.22,50.31a18.06,18.06,0,0,0,26.16-19.1l-18.59-107A54.3,54.3,0,0,1,2706,684.29l77.57-76a18.05,18.05,0,0,0-10.08-30.78L2666,562.18a54.28,54.28,0,0,1-41-29.62l-48.27-97.25A17.71,17.71,0,0,0,2560.58,425.27Z"/><path class="cls-3" d="M1789.79,1056.59h0a18.1,18.1,0,0,1-12.81-5.31l-61.46-61.46a18.13,18.13,0,0,1,25.64-25.64l48.63,48.64,110.1-110.1a18.13,18.13,0,1,1,25.64,25.64l-122.92,122.92A18.13,18.13,0,0,1,1789.79,1056.59Z"/><path class="cls-3" d="M1789.79,737h0A18.15,18.15,0,0,1,1777,731.7l-61.46-61.46a18.13,18.13,0,0,1,25.64-25.64l48.63,48.64,110.1-110.1a18.13,18.13,0,0,1,25.64,25.64L1802.61,731.7A18.17,18.17,0,0,1,1789.79,737Z"/><path class="cls-3" d="M1789.79,414.35h0A18.1,18.1,0,0,1,1777,409l-61.46-61.46a18.13,18.13,0,0,1,25.64-25.64l48.63,48.64,110.1-110.1a18.13,18.13,0,0,1,25.64,25.64L1802.61,409A18.13,18.13,0,0,1,1789.79,414.35Z"/><path class="cls-6" d="M881,608.76l63.62,130.55,142.25,20.93c73.27,10.79,102.52,102,49.51,154.3l-102.94,101.61,24.3,143.49c12.52,73.9-64.07,130.25-129.59,95.36L801,1187.26,673.71,1255c-65.52,34.89-142.1-21.46-129.58-95.36l24.3-143.49L465.49,914.54c-53-52.33-23.75-143.51,49.51-154.3l142.24-20.93,63.63-130.55C753.62,541.54,848.28,541.54,881,608.76Z"/><path class="cls-3" d="M969.83,1283.62A106.64,106.64,0,0,1,919.66,1271L801,1207.8,682.23,1271a105.94,105.94,0,0,1-112.46-7.66c-33.86-24.42-50.53-65.32-43.51-106.74L549,1022.43l-96.22-95a108.67,108.67,0,0,1-26.93-111.79c12.86-39.27,46-67.38,86.53-73.35l132.77-19.53,59.44-122c18.21-37.37,55.14-60.6,96.37-60.6s78.18,23.22,96.4,60.6h0l59.43,122,132.79,19.53c40.51,6,73.66,34.07,86.52,73.34a108.68,108.68,0,0,1-26.93,111.8l-96.22,95,22.73,134.18c7,41.42-9.66,82.32-43.53,106.73A106.31,106.31,0,0,1,969.83,1283.62ZM801,1169.13a18.09,18.09,0,0,1,8.52,2.13L936.71,1239c24.21,12.89,51.95,11,74.22-5.07,22.91-16.51,33.74-43.15,29-71.26l-24.3-143.49a18.12,18.12,0,0,1,5.13-15.93l102.94-101.62c20.06-19.8,26.77-47.73,17.94-74.71-8.68-26.51-30.12-44.73-57.34-48.74L942,757.25a18.1,18.1,0,0,1-13.65-10L864.75,616.7h0c-12.28-25.19-36.13-40.23-63.8-40.23s-51.51,15-63.78,40.23L673.53,747.26a18.11,18.11,0,0,1-13.65,10L517.64,778.18c-27.23,4-48.66,22.23-57.34,48.75-8.84,27-2.13,54.9,17.93,74.7l102.93,101.62a18.12,18.12,0,0,1,5.14,15.93L562,1162.67c-4.76,28.11,6.07,54.75,29,71.27,22.27,16,50,17.94,74.21,5.06l127.25-67.74A18.09,18.09,0,0,1,801,1169.13Z"/><rect class="cls-4" x="272.39" y="1899.87" width="377.34" height="474.88"/><path class="cls-3" d="M649.73,2392.89H272.39a18.13,18.13,0,0,1-18.13-18.13V1899.87a18.12,18.12,0,0,1,18.13-18.12H649.73a18.13,18.13,0,0,1,18.13,18.12v474.89A18.13,18.13,0,0,1,649.73,2392.89Zm-359.21-36.26H631.6V1918H290.52Z"/><path class="cls-3" d="M468.6,2274.17A18.13,18.13,0,0,1,450.47,2256V2061.85l-59.71,58.71a18.13,18.13,0,1,1-25.42-25.85l90.55-89a18.12,18.12,0,0,1,30.84,12.92V2256A18.13,18.13,0,0,1,468.6,2274.17Z"/><rect class="cls-6" x="649.73" y="1751.49" width="377.34" height="623.27"/><path class="cls-3" d="M1027.07,2392.89H649.73a18.13,18.13,0,0,1-18.13-18.13V1751.49a18.13,18.13,0,0,1,18.13-18.13h377.34a18.13,18.13,0,0,1,18.13,18.13v623.27A18.13,18.13,0,0,1,1027.07,2392.89Zm-359.21-36.26h341.08v-587H667.86Z"/><path class="cls-3" d="M906.33,2200H785.58a18.13,18.13,0,0,1-18.13-18.13V2063.12A18.13,18.13,0,0,1,785.58,2045H888.2v-82.46H785.58a18.13,18.13,0,0,1,0-36.26H906.33a18.13,18.13,0,0,1,18.13,18.13v118.72a18.13,18.13,0,0,1-18.13,18.13H803.71v82.46H906.33a18.13,18.13,0,1,1,0,36.26Z"/><rect class="cls-2" x="1027.07" y="1603.09" width="392.43" height="771.67"/><path class="cls-3" d="M1419.51,2392.89H1027.07a18.13,18.13,0,0,1-18.13-18.13V1603.09a18.13,18.13,0,0,1,18.13-18.13h392.44a18.13,18.13,0,0,1,18.13,18.13v771.67A18.13,18.13,0,0,1,1419.51,2392.89Zm-374.31-36.26h356.18V1621.22H1045.2Z"/><path class="cls-3" d="M1283.67,2096.08H1162.92a18.13,18.13,0,0,1,0-36.26h102.62V1858.66H1162.92a18.13,18.13,0,0,1,0-36.26h120.75a18.13,18.13,0,0,1,18.13,18.13V2078A18.13,18.13,0,0,1,1283.67,2096.08Z"/><path class="cls-3" d="M1283.66,1977.37h-90.55a18.13,18.13,0,1,1,0-36.26h90.55a18.13,18.13,0,0,1,0,36.26Z"/><path class="cls-3" d="M438.42,1810a18.12,18.12,0,0,1-18.12-18.13v-80C420.3,1590.09,521,1491,644.71,1491a226.55,226.55,0,0,1,118,33l11.38,6.84a18.13,18.13,0,0,1-18.65,31.09l-11.5-6.9a190.29,190.29,0,0,0-99.21-27.73c-103.75,0-188.16,82.84-188.16,184.68v80A18.12,18.12,0,0,1,438.42,1810Z"/><path class="cls-3" d="M671.74,1598.66a18.13,18.13,0,0,1-6.25-35.15l79.94-29.4-7-77.47a18.13,18.13,0,0,1,36.11-3.29l8.3,91.34a18.1,18.1,0,0,1-11.8,18.65l-93,34.2A18.07,18.07,0,0,1,671.74,1598.66Z"/><path class="cls-3" d="M846,1650.64a18.13,18.13,0,0,1-18.13-18.13v-68.86c0-121.83,100.68-220.94,224.42-220.94a226.46,226.46,0,0,1,118,33l11.38,6.83a18.13,18.13,0,1,1-18.66,31.09l-11.49-6.9a190.38,190.38,0,0,0-99.21-27.73c-103.75,0-188.16,82.85-188.16,184.68v68.86A18.12,18.12,0,0,1,846,1650.64Z"/><path class="cls-3" d="M1079.27,1450.39a18.13,18.13,0,0,1-6.25-35.15l80-29.4-7-77.48a18.13,18.13,0,1,1,36.11-3.28l8.3,91.34a18.13,18.13,0,0,1-11.79,18.66l-93,34.19A18.07,18.07,0,0,1,1079.27,1450.39Z"/><path class="cls-2" d="M2332.7,2446.74v444.92H1684.3a41.67,41.67,0,0,0-41.67,41.67v444.92H3105.49V2405.07H2374.37A41.67,41.67,0,0,0,2332.7,2446.74Z"/><path class="cls-4" d="M3105.49,3142.65v209.94a25.67,25.67,0,0,1-25.66,25.66H2504.67a25.66,25.66,0,0,1-25.65-25.66V3142.65Z"/><path class="cls-3" d="M3079.83,3396.38H2504.67a43.83,43.83,0,0,1-43.78-43.79V3142.65a18.13,18.13,0,0,1,36.26,0v209.94a7.53,7.53,0,0,0,7.52,7.53h575.16a7.54,7.54,0,0,0,7.53-7.53V3142.65a18.13,18.13,0,1,1,36.25,0v209.94A43.83,43.83,0,0,1,3079.83,3396.38Z"/><path class="cls-3" d="M2950.44,2905.83a18.13,18.13,0,0,1-18.13-18.13V2822a33.22,33.22,0,0,0-33.17-33.18H2685.36a33.22,33.22,0,0,0-33.18,33.18v65.73a18.13,18.13,0,0,1-36.26,0V2822a69.52,69.52,0,0,1,69.44-69.43h213.78a69.51,69.51,0,0,1,69.43,69.43v65.73A18.12,18.12,0,0,1,2950.44,2905.83Z"/><path class="cls-4" d="M2698.12,3142.65H2475.05A25.66,25.66,0,0,1,2449.4,3117V2913.36a25.65,25.65,0,0,1,25.65-25.65h634.4a25.65,25.65,0,0,1,25.65,25.65V3117a25.66,25.66,0,0,1-25.65,25.66H2698.12Z"/><path class="cls-3" d="M3109.45,3160.77H2886.39a18.13,18.13,0,1,1,0-36.25h223.06A7.54,7.54,0,0,0,3117,3117V2913.36a7.53,7.53,0,0,0-7.52-7.52h-634.4a7.52,7.52,0,0,0-7.52,7.52V3117a7.53,7.53,0,0,0,7.52,7.53h223.07a18.13,18.13,0,1,1,0,36.25H2475.05a43.83,43.83,0,0,1-43.78-43.78V2913.36a43.83,43.83,0,0,1,43.78-43.78h634.4a43.83,43.83,0,0,1,43.78,43.78V3117A43.83,43.83,0,0,1,3109.45,3160.77Z"/><rect class="cls-2" x="2698.11" y="3079.27" width="188.29" height="126.8" rx="25.65"/><path class="cls-3" d="M2860.74,3224.2h-137a43.83,43.83,0,0,1-43.78-43.79v-75.48a43.83,43.83,0,0,1,43.78-43.79h137a43.83,43.83,0,0,1,43.79,43.79v75.48A43.83,43.83,0,0,1,2860.74,3224.2Zm-137-126.8a7.53,7.53,0,0,0-7.52,7.53v75.48a7.53,7.53,0,0,0,7.52,7.53h137a7.54,7.54,0,0,0,7.53-7.53v-75.48a7.54,7.54,0,0,0-7.53-7.53Z"/><path class="cls-3" d="M1642.63,3395.9H977.84a18.13,18.13,0,1,1,0-36.26h664.79a18.13,18.13,0,0,1,0,36.26Z"/><path class="cls-3" d="M1642.63,3395.9a18.13,18.13,0,0,1-18.13-18.13V2936.13c0-33.74,28.57-61.19,63.69-61.19h644.5a18.13,18.13,0,1,1,0,36.25h-644.5c-15.13,0-27.43,11.19-27.43,24.94v441.64A18.13,18.13,0,0,1,1642.63,3395.9Z"/><path class="cls-3" d="M2332.69,2911.19a18.12,18.12,0,0,1-18.12-18.12V2451.43c0-33.74,28.57-61.2,63.69-61.2h733a18.13,18.13,0,1,1,0,36.26h-733c-15.13,0-27.44,11.19-27.44,24.94v441.64A18.12,18.12,0,0,1,2332.69,2911.19Z"/><path class="cls-3" d="M3033.11,2531.43a18.12,18.12,0,0,1-13-30.73l89.32-92.34-95.7-98.92a18.13,18.13,0,1,1,26.07-25.21l107.88,111.53a18.13,18.13,0,0,1,0,25.21l-101.51,104.94A18.06,18.06,0,0,1,3033.11,2531.43Z"/><path class="cls-6" d="M1693.44,2796.16c0-100.89,84.59-183.76,189.16-186.7l156.78-.09c107.2,0,194.91,84.06,194.91,186.79Z"/><path class="cls-3" d="M2234.29,2814.29a18.13,18.13,0,0,1-18.13-18.13c0-93-79.3-168.66-176.77-168.66l-156.53.08c-94.48,2.79-171.29,78.36-171.29,168.58a18.13,18.13,0,1,1-36.26,0c0-109.73,92.76-201.62,206.78-204.83h.5l156.79-.08c117.47,0,213,91.92,213,204.91A18.12,18.12,0,0,1,2234.29,2814.29Z"/><path class="cls-2" d="M2039.38,2580.42v34.25c0,29-35.27,52.66-78.39,52.66h0c-43.12,0-78.4-23.7-78.4-52.66v-34.25Z"/><path class="cls-3" d="M1961,2685.46c-54.13,0-96.53-31.09-96.53-70.79v-34.25a18.13,18.13,0,0,1,36.26,0v34.25c0,16.33,24.75,34.53,60.27,34.53s60.27-18.2,60.27-34.53v-34.25a18.13,18.13,0,1,1,36.25,0v34.25C2057.51,2654.37,2015.11,2685.46,1961,2685.46Z"/><path class="cls-2" d="M1961,2139.92h0c-98.42,0-179.9,73.95-188.77,167.56-.28,0-.55,0-.83,0h0c-33,0-59.91,26.23-59.91,58.3s27,58.29,59.91,58.29h0c.28,0,.55,0,.83,0,8.87,93.61,90.35,167.56,188.77,167.56h0c98.41,0,179.9-74,188.76-167.56.28,0,.56,0,.84,0,32.95,0,59.91-26.23,59.91-58.29s-27-58.3-59.91-58.3c-.28,0-.56,0-.84,0Z"/><path class="cls-3" d="M1961,2609.68c-101,0-188.11-73.08-204.8-169-35.78-6.94-62.84-37.91-62.84-75s27.06-68,62.84-75c16.69-95.9,103.8-169,204.8-169a18.13,18.13,0,0,1,0,36.26c-87.71,0-162.69,66.39-170.71,151.14a18.14,18.14,0,0,1-18,16.42c-.46,0-.86,0-1.28,0-22.84.23-41.34,18.16-41.34,40.17s18.54,40,41.4,40.16c.49,0,.92-.05,1.22,0a18.14,18.14,0,0,1,18,16.42c8,84.75,83,151.14,170.71,151.14s162.69-66.39,170.71-151.14a18.14,18.14,0,0,1,18.05-16.42c.32,0,.76,0,1.23,0,22.86-.21,41.39-18.15,41.39-40.16s-18.51-39.94-41.34-40.17c-.44,0-.85,0-1.28,0a18.13,18.13,0,0,1-.71-36.24c.53,0,1-.06,1.55-.06,43,0,78,34.29,78,76.43,0,37.05-27.06,68-62.84,75C2149.09,2536.6,2062,2609.68,1961,2609.68Z"/><path class="cls-6" d="M2074.05,2233.88V2346.3c0,22.37,20.17,40.31,43.4,36.88,18.69-2.76,32-19.57,32-38.26V2184.57c0-24.66-20.2-44.65-45.12-44.65H1961c-172.39,12.25-188.37,166.95-188.43,167.56v38.82c0,22.37,20.17,40.31,43.41,36.88,18.68-2.76,32-19.57,32-38.26v-59.21s116.11,37.19,226.12-33.81Z"/><path class="cls-3" d="M2111.82,2401.72a56,56,0,0,1-36.64-13.59,55.28,55.28,0,0,1-19.26-41.83v-63.24c-77.52,38.64-152.79,32.38-189.86,25.53v36.33c0,28-20.4,52.19-47.45,56.19a56.15,56.15,0,0,1-44.93-13,55.28,55.28,0,0,1-19.26-41.83v-38.8a17,17,0,0,1,.1-1.89c.18-1.77,4.81-43.91,32.33-87.29,25.53-40.23,76.24-89.62,172.84-96.48.43,0,.86-.05,1.29-.05h143.33c34.87,0,63.24,28.17,63.24,62.78v160.35c0,28-20.4,52.19-47.44,56.19A56.61,56.61,0,0,1,2111.82,2401.72Zm-19.64-149.56v94.14a19,19,0,0,0,6.69,14.38,19.63,19.63,0,0,0,15.93,4.56c9.41-1.39,16.5-10.13,16.5-20.32V2184.57a26.79,26.79,0,0,0-27-26.52H1961.63c-149.73,11-169.36,137.77-171,150.48v37.77a19,19,0,0,0,6.69,14.38,19.62,19.62,0,0,0,15.93,4.56c9.41-1.39,16.5-10.13,16.5-20.32v-59.21a18.13,18.13,0,0,1,23.66-17.27c1,.32,103.81,31.69,202.46-26.65v-7.91a18.13,18.13,0,1,1,36.26,0v18.28Z"/><path class="cls-4" d="M2407.3,2314.33c0-100.89,84.59-183.77,189.16-186.71l156.79-.08c107.2,0,194.91,84.06,194.91,186.79Z"/><path class="cls-3" d="M2948.16,2332.46a18.13,18.13,0,0,1-18.13-18.13c0-93-79.3-168.66-176.78-168.66l-156.52.08c-94.48,2.78-171.3,78.36-171.3,168.58a18.13,18.13,0,0,1-36.26,0c0-109.74,92.76-201.62,206.78-204.83h.5l156.79-.08c117.48,0,213.05,91.93,213.05,204.92A18.13,18.13,0,0,1,2948.16,2332.46Z"/><path class="cls-2" d="M2753.25,2098.58v34.26c0,29-35.28,52.66-78.4,52.66h0c-43.12,0-78.39-23.7-78.39-52.66v-34.26Z"/><path class="cls-3" d="M2674.85,2203.63c-54.12,0-96.52-31.1-96.52-70.79v-34.25a18.13,18.13,0,0,1,36.26,0v34.25c0,16.33,24.75,34.53,60.26,34.53s60.27-18.2,60.27-34.53v-34.25a18.13,18.13,0,0,1,36.26,0v34.25C2771.38,2172.53,2729,2203.63,2674.85,2203.63Z"/><path class="cls-2" d="M2674.85,1658.09h0c-98.41,0-179.9,74-188.76,167.56-.28,0-.56,0-.84,0h0c-32.95,0-59.91,26.23-59.91,58.29s27,58.3,59.91,58.3h0c.28,0,.56,0,.84,0,8.86,93.61,90.35,167.57,188.76,167.57h0c98.42,0,179.9-74,188.77-167.57.28,0,.55,0,.83,0,33,0,59.91-26.24,59.91-58.3s-27-58.29-59.91-58.29c-.28,0-.55,0-.83,0Z"/><path class="cls-3" d="M2674.85,2127.85c-101,0-188.1-73.08-204.8-169-35.78-6.94-62.84-37.92-62.84-75s27.06-68,62.84-75c16.69-95.89,103.8-169,204.8-169a18.13,18.13,0,1,1,0,36.26c-87.7,0-162.69,66.39-170.71,151.14a18.14,18.14,0,0,1-18,16.42c-.31,0-.76,0-1.23,0-22.86.2-41.39,18.14-41.39,40.16s18.54,40,41.4,40.16c.5,0,.93,0,1.22,0a18.13,18.13,0,0,1,18,16.42c8,84.75,83,151.14,170.71,151.14s162.7-66.39,170.72-151.14a18.13,18.13,0,0,1,18-16.42l1.24,0c22.85-.2,41.38-18.14,41.38-40.16s-18.54-40-41.4-40.16c-.49,0-.93,0-1.22,0a18.13,18.13,0,0,1-.74-36.25c.55,0,1.06,0,1.58,0,43,0,78,34.28,78,76.42,0,37-27,68-62.84,75C2863,2054.77,2775.85,2127.85,2674.85,2127.85Z"/><path class="cls-6" d="M2787.91,1752.05v112.42c0,22.37,20.17,40.31,43.41,36.87,18.68-2.76,32-19.56,32-38.26V1702.74c0-24.66-20.2-44.65-45.12-44.65H2674.84c-172.38,12.24-188.36,167-188.42,167.56h0v38.81c0,22.37,20.17,40.31,43.4,36.87,18.68-2.76,32-19.56,32-38.26v-59.21s116.11,37.2,226.12-33.81Z"/><path class="cls-3" d="M2825.68,1919.89A56.06,56.06,0,0,1,2789,1906.3a55.27,55.27,0,0,1-19.25-41.83v-63.24c-77.53,38.64-152.81,32.38-189.87,25.53v36.32c0,28-20.4,52.2-47.45,56.2a56.17,56.17,0,0,1-44.93-13,55.28,55.28,0,0,1-19.26-41.83v-38.81c0-.62,0-1.26.1-1.88.18-1.77,4.81-43.91,32.34-87.29,25.52-40.23,76.23-89.62,172.84-96.49.42,0,.85,0,1.28,0h143.33c34.88,0,63.25,28.16,63.25,62.78v160.34c0,28-20.4,52.2-47.45,56.2A56.5,56.5,0,0,1,2825.68,1919.89Zm-19.63-149.56v94.14a19,19,0,0,0,6.69,14.38,19.64,19.64,0,0,0,15.93,4.56c9.4-1.39,16.49-10.13,16.49-20.33V1702.74a26.79,26.79,0,0,0-27-26.52H2675.49c-149.73,11-169.36,137.77-170.95,150.47v37.78a19,19,0,0,0,6.7,14.38,19.64,19.64,0,0,0,15.93,4.56c9.4-1.39,16.49-10.13,16.49-20.33v-59.21a18.13,18.13,0,0,1,23.66-17.26c1,.32,103.81,31.7,202.47-26.65v-7.91a18.13,18.13,0,0,1,36.26,0v18.28Z"/><path class="cls-5" d="M1009.44,3281.68c0-100.89,84.59-183.76,189.16-186.71l156.78-.08c107.2,0,194.91,84.06,194.91,186.79Z"/><path class="cls-3" d="M1550.29,3299.81a18.13,18.13,0,0,1-18.13-18.13c0-93-79.3-168.66-176.78-168.66l-156.51.08c-94.48,2.79-171.3,78.36-171.3,168.58a18.13,18.13,0,1,1-36.26,0c0-109.74,92.76-201.62,206.78-204.83h.5l156.79-.08c117.47,0,213,91.93,213,204.92A18.13,18.13,0,0,1,1550.29,3299.81Z"/><path class="cls-2" d="M1355.38,3065.94v34.25c0,29-35.27,52.66-78.39,52.66h0c-43.12,0-78.4-23.7-78.4-52.66v-34.25Z"/><path class="cls-3" d="M1277,3171c-54.13,0-96.53-31.09-96.53-70.79v-34.25a18.13,18.13,0,0,1,36.26,0v34.25c0,16.33,24.75,34.53,60.27,34.53s60.27-18.2,60.27-34.53v-34.25a18.13,18.13,0,1,1,36.25,0v34.25C1373.51,3139.89,1331.11,3171,1277,3171Z"/><path class="cls-2" d="M1277,2625.44h0c-98.42,0-179.9,73.95-188.77,167.56-.28,0-.55,0-.83,0h0c-33,0-59.91,26.23-59.91,58.29s27,58.3,59.91,58.3h0c.28,0,.55,0,.83,0,8.87,93.61,90.35,167.56,188.77,167.56h0c98.41,0,179.9-74,188.76-167.56.28,0,.56,0,.84,0,33,0,59.91-26.23,59.91-58.3s-27-58.29-59.91-58.29c-.28,0-.56,0-.84,0Z"/><path class="cls-3" d="M1277,3095.2c-101,0-188.1-73.08-204.8-169-35.78-6.94-62.84-37.92-62.84-75s27.06-68,62.84-75c16.7-95.9,103.8-169,204.8-169a18.13,18.13,0,0,1,0,36.26c-87.71,0-162.69,66.39-170.72,151.14a18.13,18.13,0,0,1-18,16.42c-.32,0-.76,0-1.24,0-22.85.21-41.38,18.15-41.38,40.16s18.53,40,41.4,40.17c.49,0,.93,0,1.22,0a18.13,18.13,0,0,1,18,16.42c8,84.75,83,151.14,170.72,151.14s162.69-66.39,170.71-151.14a18.14,18.14,0,0,1,18-16.42c.32,0,.75,0,1.23,0,22.86-.21,41.39-18.15,41.39-40.17s-18.54-40-41.4-40.16c-.5,0-.94,0-1.22,0a18.13,18.13,0,0,1-.74-36.24c.54,0,1.06-.06,1.58-.06,43,0,78,34.29,78,76.42,0,37.05-27.06,68-62.84,75C1465.09,3022.12,1378,3095.2,1277,3095.2Z"/><path class="cls-6" d="M1390.05,2719.4v112.42c0,22.37,20.17,40.31,43.4,36.88,18.68-2.77,32-19.57,32-38.26V2670.09c0-24.66-20.19-44.65-45.11-44.65H1277c-172.38,12.24-188.36,166.95-188.42,167.56v38.82c0,22.37,20.17,40.31,43.4,36.88,18.69-2.77,32-19.57,32-38.26v-59.21s116.11,37.19,226.12-33.81Z"/><path class="cls-3" d="M1427.82,2887.24a56,56,0,0,1-36.64-13.59,55.28,55.28,0,0,1-19.26-41.83v-63.24c-77.52,38.64-152.79,32.38-189.86,25.53v36.33c0,28-20.4,52.19-47.46,56.19a56.07,56.07,0,0,1-44.92-13,55.28,55.28,0,0,1-19.26-41.83V2793a18,18,0,0,1,.18-2.55c1.57-12.53,25.13-170.33,205.09-183.11.43,0,.85-.05,1.28-.05h143.34c34.87,0,63.24,28.17,63.24,62.78v160.35c0,28-20.4,52.19-47.44,56.19A56.61,56.61,0,0,1,1427.82,2887.24Zm-19.64-149.56v94.14a19,19,0,0,0,6.69,14.38,19.67,19.67,0,0,0,15.93,4.56c9.41-1.39,16.5-10.13,16.5-20.32V2670.09a26.79,26.79,0,0,0-27-26.52H1277.63c-149.92,11-169.4,138.07-171,150.5v37.75a19,19,0,0,0,6.69,14.38,19.66,19.66,0,0,0,15.93,4.56c9.4-1.39,16.5-10.13,16.5-20.32v-59.21a18.13,18.13,0,0,1,23.66-17.27c1,.32,103.8,31.69,202.46-26.65v-7.91a18.13,18.13,0,0,1,36.26,0v18.28Z"/><path class="cls-3" d="M813.77,3280.85A18,18,0,0,1,804,3278,1745.83,1745.83,0,0,1,641.87,3159.5a18.13,18.13,0,0,1,23-28,1710,1710,0,0,0,158.69,116,18.13,18.13,0,0,1-9.84,33.36Zm-306.27-252a18.08,18.08,0,0,1-13-5.53c-35.22-36.47-69.38-75-101.54-114.62-10-12.25-19.91-24.83-29.58-37.4a18.13,18.13,0,0,1,28.74-22.11c9.48,12.31,19.23,24.64,29,36.64,31.52,38.79,65,76.57,99.49,112.3a18.13,18.13,0,0,1-13,30.72ZM265.64,2714.28a18.12,18.12,0,0,1-15.54-8.77,1755.94,1755.94,0,0,1-93.66-177.57,18.13,18.13,0,1,1,33-15,1716.88,1716.88,0,0,0,91.72,173.88,18.14,18.14,0,0,1-15.51,27.5ZM101.1,2353.34a18.14,18.14,0,0,1-17.25-12.57,1740,1740,0,0,1-50.44-194.29A18.13,18.13,0,1,1,69,2139.41a1703.88,1703.88,0,0,0,49.39,190.23,18.14,18.14,0,0,1-17.26,23.7Zm-77.32-389a18.15,18.15,0,0,1-18.06-16.67C1.93,1900.76,0,1853,0,1805.73c0-19.53.33-39.28,1-58.72a18.13,18.13,0,1,1,36.23,1.21c-.63,19-1,38.38-1,57.51,0,46.3,1.88,93.07,5.61,139a18.13,18.13,0,0,1-16.61,19.53C24.76,1964.32,24.27,1964.35,23.78,1964.35Zm13.06-396.49a17.2,17.2,0,0,1-2.66-.2,18.12,18.12,0,0,1-15.3-20.56,1765.32,1765.32,0,0,1,40.43-196.64,18.13,18.13,0,0,1,35,9.32,1728.36,1728.36,0,0,0-39.6,192.58A18.14,18.14,0,0,1,36.84,1567.86Zm102-383.36a18.14,18.14,0,0,1-16.87-24.77A1752.07,1752.07,0,0,1,206,977.45a18.13,18.13,0,0,1,32,17A1717.15,1717.15,0,0,0,155.68,1173,18.15,18.15,0,0,1,138.8,1184.5Zm186.5-350A18.13,18.13,0,0,1,310.39,806,1758.07,1758.07,0,0,1,433.74,647.7,18.13,18.13,0,1,1,461,671.58a1721.22,1721.22,0,0,0-120.79,155A18.12,18.12,0,0,1,325.3,834.45ZM586.55,536a18.13,18.13,0,0,1-12.19-31.55q4.38-4,8.79-7.94a1774.32,1774.32,0,0,1,147.17-118.4,18.13,18.13,0,0,1,21.19,29.43,1735.67,1735.67,0,0,0-144.15,116q-4.32,3.87-8.63,7.79A18.07,18.07,0,0,1,586.55,536Zm322-231.72a18.13,18.13,0,0,1-8.86-34,1757.53,1757.53,0,0,1,180.55-87.74,18.13,18.13,0,1,1,14,33.46A1719.74,1719.74,0,0,0,917.35,302,18.09,18.09,0,0,1,908.52,304.31Zm366.11-152.62a18.13,18.13,0,0,1-5-35.56,1752.52,1752.52,0,0,1,195.79-44.3,18.13,18.13,0,0,1,6,35.77A1714.6,1714.6,0,0,0,1279.65,151,18.27,18.27,0,0,1,1274.63,151.69Z"/><path class="cls-3" d="M3250.6,2701.93A18.13,18.13,0,0,1,3235,2674.6a1716.7,1716.7,0,0,0,84.27-162.24,18.13,18.13,0,0,1,33,15A1756.42,1756.42,0,0,1,3266.23,2693,18.13,18.13,0,0,1,3250.6,2701.93Zm156.69-349.3A18.13,18.13,0,0,1,3390,2329a1726.12,1726.12,0,0,0,49.31-190.3,18.13,18.13,0,0,1,35.56,7.07,1762.25,1762.25,0,0,1-50.35,194.33A18.15,18.15,0,0,1,3407.29,2352.63Zm77.46-389.06c-.5,0-1,0-1.52-.06a18.13,18.13,0,0,1-16.57-19.57c3.93-47.38,5.93-95.42,5.93-142.79,0-17.88-.28-36-.84-53.74a18.13,18.13,0,0,1,36.24-1.14c.57,18.16.86,36.62.86,54.88,0,48.37-2,97.42-6,145.79A18.14,18.14,0,0,1,3484.75,1963.57Zm-12.54-396.38a18.14,18.14,0,0,1-17.91-15.48,1709.69,1709.69,0,0,0-39.87-192.42,18.13,18.13,0,0,1,35-9.39,1745.45,1745.45,0,0,1,40.72,196.51,18.12,18.12,0,0,1-15.28,20.58A17.36,17.36,0,0,1,3472.21,1567.19Zm-102.66-383a18.14,18.14,0,0,1-16.86-11.46A1726.12,1726.12,0,0,0,3270,994.4a18.13,18.13,0,0,1,32-17.11,1761.9,1761.9,0,0,1,84.44,182.08,18.12,18.12,0,0,1-16.85,24.8Zm-187.1-349.72a18.12,18.12,0,0,1-14.93-7.82A1740,1740,0,0,0,3046.7,671.54,18.13,18.13,0,0,1,3074,647.67,1775.7,1775.7,0,0,1,3197.34,806a18.13,18.13,0,0,1-14.89,28.45Z"/></g></g></svg>